<?xml version="1.0" encoding="iso-8859-1"?>
<!-- Generator: Adobe Illustrator 19.0.0, SVG Export Plug-In . SVG Version: 6.00 Build 0)  -->
<svg version="1.1" id="Capa_1" xmlns="http://www.w3.org/2000/svg" xmlns:xlink="http://www.w3.org/1999/xlink" x="0px" y="0px"
	 viewBox="0 0 365.714 365.714" style="enable-background:new 0 0 365.714 365.714;" xml:space="preserve">
<path style="fill:#00ACEA;" d="M354.22,5.225H11.494C5.533,5.2,0.542,9.737,0,15.674v60.082c0,5.771,4.678,10.449,10.449,10.449
	s10.449-4.678,10.449-10.449V26.122h151.51v313.469h-66.873c-5.771,0-10.449,4.678-10.449,10.449s4.678,10.449,10.449,10.449H260.18
	c5.771,0,10.449-4.678,10.449-10.449s-4.678-10.449-10.449-10.449h-66.873V26.122h151.51v49.633c0,5.771,4.678,10.449,10.449,10.449
	c5.771,0,10.449-4.678,10.449-10.449V15.674C365.172,9.737,360.182,5.2,354.22,5.225z"/>
<g>
</g>
<g>
</g>
<g>
</g>
<g>
</g>
<g>
</g>
<g>
</g>
<g>
</g>
<g>
</g>
<g>
</g>
<g>
</g>
<g>
</g>
<g>
</g>
<g>
</g>
<g>
</g>
<g>
</g>
</svg>
